<?xml version="1.0" standalone="no"?>
<!DOCTYPE svg PUBLIC "-//W3C//DTD SVG 20010904//EN"
 "http://www.w3.org/TR/2001/REC-SVG-20010904/DTD/svg10.dtd">
<svg version="1.0" xmlns="http://www.w3.org/2000/svg"
 width="16.000000pt" height="16.000000pt" viewBox="0 0 16.000000 16.000000"
 preserveAspectRatio="xMidYMid meet">
<metadata>
Created by potrace 1.11, written by Peter Selinger 2001-2013
</metadata>
<g transform="translate(0.000000,16.000000) scale(0.002930,-0.002930)"
fill="#000000" stroke="none">
<path d="M770 5435 c-362 -66 -637 -320 -732 -677 l-23 -83 -3 -1900 c-2
-1380 0 -1922 8 -1980 14 -92 51 -218 88 -290 118 -235 336 -410 591 -474 l85
-21 1951 0 1951 0 85 21 c333 84 576 333 667 687 16 62 17 199 17 2002 0 1847
-1 1939 -18 2014 -82 348 -328 598 -682 692 -67 18 -157 18 -1990 20 -1584 2
-1933 0 -1995 -11z m2525 -1189 c266 -52 478 -178 580 -346 126 -208 140 -543
30 -760 -61 -121 -171 -230 -307 -305 -38 -20 -68 -38 -68 -40 0 -2 33 -13 73
-25 123 -37 204 -85 293 -175 66 -66 90 -99 128 -176 76 -154 90 -222 90 -434
0 -168 -2 -186 -28 -270 -43 -140 -89 -218 -186 -316 -156 -158 -361 -250
-655 -294 -83 -12 -243 -15 -927 -15 l-828 0 0 1591 0 1590 858 -4 c766 -3
867 -5 947 -21z"/>
<path d="M2050 3375 l0 -435 503 0 c545 0 556 1 658 56 75 41 135 104 172 182
31 65 32 70 32 207 -1 123 -3 147 -24 199 -44 110 -120 171 -256 206 -73 19
-111 20 -582 20 l-503 0 0 -435z"/>
<path d="M2050 2035 l0 -495 523 0 c578 1 632 5 744 60 162 80 243 226 243
440 0 219 -70 348 -232 431 -113 57 -132 59 -730 59 l-548 0 0 -495z"/>
</g>
</svg>
