<?xml version="1.0" standalone="no"?>
<!DOCTYPE svg PUBLIC "-//W3C//DTD SVG 20010904//EN"
 "http://www.w3.org/TR/2001/REC-SVG-20010904/DTD/svg10.dtd">
<svg version="1.0" xmlns="http://www.w3.org/2000/svg"
 width="16.000000pt" height="16.000000pt" viewBox="0 0 16.000000 16.000000"
 preserveAspectRatio="xMidYMid meet">
<metadata>
Created by potrace 1.11, written by Peter Selinger 2001-2013
</metadata>
<g transform="translate(0.000000,16.000000) scale(0.001280,-0.001280)"
fill="#000000" stroke="none">
<path d="M4340 11674 c-324 -62 -546 -259 -643 -569 -71 -225 -60 -500 27
-715 126 -313 430 -503 780 -487 173 8 284 53 394 163 30 30 54 48 57 41 2 -6
8 -41 15 -77 19 -109 6 -100 141 -100 l119 0 0 465 0 465 -360 0 -360 0 0
-140 0 -140 190 0 c105 0 190 -3 190 -7 0 -5 -7 -36 -15 -71 -40 -169 -136
-257 -307 -284 -157 -24 -294 19 -391 121 -108 113 -153 264 -144 485 8 198
47 311 144 416 63 69 136 106 237 122 176 27 325 -42 396 -184 16 -34 30 -69
30 -80 0 -17 12 -18 180 -18 l180 0 0 26 c0 44 -30 146 -63 214 -42 85 -168
214 -257 263 -36 19 -103 47 -150 62 -73 24 -105 28 -225 31 -77 1 -151 0
-165 -2z"/>
<path d="M6650 11674 c-162 -32 -270 -83 -363 -172 -78 -76 -120 -153 -138
-252 -32 -182 39 -348 189 -444 101 -64 180 -92 452 -161 161 -41 225 -65 287
-107 54 -36 73 -73 73 -138 0 -56 -15 -93 -52 -126 -97 -89 -341 -108 -485
-38 -93 45 -163 151 -163 246 l0 28 -182 -2 -183 -3 3 -60 c10 -194 125 -366
303 -454 143 -70 216 -85 424 -85 210 -1 267 10 411 79 149 72 243 185 279
336 42 179 -7 346 -134 459 -89 80 -169 113 -448 185 -278 71 -346 97 -386
144 -22 26 -27 43 -27 83 0 76 35 129 107 165 52 25 68 28 158 28 128 -1 192
-22 251 -80 40 -40 52 -67 69 -147 l5 -28 180 0 180 0 0 40 c0 163 -108 338
-258 418 -110 59 -220 84 -382 87 -80 2 -156 1 -170 -1z"/>
<path d="M1400 10789 l0 -850 493 4 c435 3 499 5 552 21 250 74 385 239 385
472 0 180 -87 328 -233 398 l-69 33 34 20 c155 91 217 255 172 454 -36 159
-151 252 -358 288 -36 7 -242 11 -518 11 l-458 0 0 -851z m885 530 c67 -34 95
-82 95 -164 0 -87 -30 -142 -95 -175 -48 -24 -57 -25 -277 -28 l-228 -4 0 202
0 202 228 -3 c221 -4 229 -5 277 -30z m-16 -630 c69 -14 133 -58 156 -105 11
-23 21 -68 23 -110 6 -115 -37 -187 -138 -224 -24 -9 -112 -15 -282 -18 l-248
-4 0 236 0 236 220 0 c120 0 241 -5 269 -11z"/>
<path d="M3050 10790 l0 -850 190 0 190 0 0 850 0 850 -190 0 -190 0 0 -850z"/>
<path d="M7720 10790 l0 -850 190 0 190 0 0 850 0 850 -190 0 -190 0 0 -850z"/>
<path d="M8340 11485 l0 -155 420 -2 419 -3 -454 -545 -455 -545 0 -147 0
-148 720 0 720 0 0 155 0 155 -465 2 -466 3 456 547 455 546 0 146 0 146 -675
0 -675 0 0 -155z"/>
<path d="M9900 10790 l0 -850 650 0 650 0 0 155 0 155 -460 0 -460 0 0 210 0
210 410 0 410 0 0 145 0 145 -410 0 -410 0 0 185 0 185 450 0 450 0 0 155 0
155 -640 0 -640 0 0 -850z"/>
<path d="M7855 9216 c-550 -91 -929 -474 -1047 -1059 -20 -96 -23 -142 -22
-327 0 -184 3 -230 23 -320 108 -504 394 -840 837 -986 220 -72 505 -84 689
-30 178 53 301 128 414 253 69 77 58 88 94 -102 l23 -120 187 -3 187 -2 0 715
0 715 -560 0 -560 0 0 -215 0 -215 295 0 c259 0 295 -2 295 -15 0 -51 -37
-182 -71 -253 -97 -202 -272 -295 -554 -296 -219 0 -335 45 -476 184 -72 71
-94 100 -133 180 -72 148 -97 261 -103 466 -6 198 9 322 58 468 79 238 246
406 461 463 80 21 272 23 348 4 189 -48 344 -200 391 -385 l11 -46 280 0 280
0 -7 57 c-24 194 -117 389 -255 536 -147 158 -333 259 -590 322 -89 22 -388
29 -495 11z"/>
<path d="M3300 7846 l0 -1326 703 0 c411 0 731 5 772 10 434 62 700 296 745
657 36 281 -73 552 -273 682 -34 23 -92 53 -129 68 l-68 26 62 36 c89 52 188
153 226 231 60 122 77 288 47 446 -41 214 -178 365 -395 437 -152 51 -147 50
-942 54 l-748 4 0 -1325z m1247 863 c130 -17 216 -69 260 -158 14 -28 18 -60
18 -141 0 -91 -3 -111 -23 -149 -43 -79 -119 -130 -227 -150 -34 -6 -189 -11
-372 -11 l-313 0 0 310 0 310 289 0 c159 0 325 -5 368 -11z m83 -1020 c122
-19 227 -85 270 -169 28 -55 43 -152 37 -236 -13 -176 -116 -275 -315 -304
-37 -5 -217 -10 -399 -10 l-333 0 0 365 0 365 338 0 c185 0 366 -5 402 -11z"/>
<path d="M5850 7845 l0 -1325 295 0 295 0 0 1325 0 1325 -295 0 -295 0 0
-1325z"/>
<path d="M4445 5965 c-545 -85 -929 -473 -1047 -1058 -20 -96 -23 -142 -22
-327 0 -236 14 -332 74 -512 181 -542 633 -858 1226 -858 282 0 521 67 734
205 105 68 281 249 349 358 350 567 272 1403 -173 1850 -183 184 -417 301
-686 342 -114 18 -344 18 -455 0z m426 -500 c191 -49 353 -200 435 -405 97
-238 110 -587 33 -845 -74 -247 -250 -431 -469 -491 -89 -24 -300 -25 -388 -1
-116 31 -190 75 -282 167 -71 70 -94 102 -133 180 -73 146 -98 259 -104 466
-4 129 -1 195 11 274 60 380 267 623 571 670 82 12 249 5 326 -15z"/>
<path d="M1140 5675 l0 -245 395 0 395 0 0 -1080 0 -1080 295 0 295 0 0 1080
0 1080 395 0 395 0 0 245 0 245 -1085 0 -1085 0 0 -245z"/>
<path d="M6283 4998 c4 -1005 3 -981 63 -1163 106 -322 338 -512 726 -597 90
-19 132 -22 338 -22 207 0 247 3 340 23 484 105 744 395 789 882 7 70 11 436
11 957 l0 842 -295 0 -294 0 -3 -907 c-3 -904 -4 -908 -26 -987 -37 -133 -89
-205 -180 -254 -92 -49 -176 -66 -337 -66 -158 0 -235 15 -320 64 -61 35 -135
110 -164 168 -57 112 -55 79 -59 1070 l-3 912 -295 0 -295 0 4 -922z"/>
<path d="M8980 4595 l0 -1325 295 0 295 0 0 516 0 516 358 -4 c396 -5 422 -9
504 -71 116 -88 157 -221 188 -612 12 -145 23 -219 46 -294 l15 -51 293 0 293
0 -28 58 c-40 82 -56 176 -74 437 -17 267 -40 391 -90 491 -58 118 -157 212
-257 244 -21 6 -38 15 -37 18 0 4 32 22 71 41 102 49 213 160 260 261 61 129
72 187 73 355 0 130 -3 160 -23 225 -83 264 -287 447 -565 504 -66 14 -184 16
-847 16 l-770 0 0 -1325z m1331 865 c129 -19 218 -78 260 -173 31 -69 39 -256
15 -339 -30 -103 -95 -167 -207 -204 -47 -15 -104 -18 -431 -22 l-378 -3 0
375 0 376 338 0 c185 0 367 -5 403 -10z"/>
<path d="M4140 2424 c-324 -62 -546 -259 -643 -569 -71 -225 -60 -500 27 -715
126 -313 430 -503 780 -487 173 8 284 53 394 163 30 30 54 48 57 41 2 -6 8
-41 15 -77 19 -109 6 -100 141 -100 l119 0 0 465 0 465 -360 0 -360 0 0 -140
0 -140 190 0 c105 0 190 -3 190 -7 0 -5 -7 -36 -15 -71 -40 -169 -136 -257
-307 -284 -157 -24 -294 19 -391 121 -108 113 -153 264 -144 485 8 198 47 311
144 416 63 69 136 106 237 122 176 27 325 -42 396 -184 16 -34 30 -69 30 -80
0 -17 12 -18 180 -18 l180 0 0 26 c0 44 -30 146 -63 214 -42 85 -168 214 -257
263 -36 19 -103 47 -150 62 -73 24 -105 28 -225 31 -77 1 -151 0 -165 -2z"/>
<path d="M9010 2423 c-253 -42 -466 -194 -579 -412 -83 -161 -117 -328 -108
-530 19 -434 262 -737 656 -816 102 -21 302 -16 396 10 203 55 356 179 446
360 41 83 79 214 79 272 l0 33 -179 0 -180 0 -11 -53 c-48 -232 -228 -357
-456 -317 -93 16 -165 53 -227 119 -108 113 -153 264 -144 485 8 198 47 311
144 416 170 185 485 166 625 -38 17 -25 36 -63 43 -86 l12 -41 183 -3 182 -2
-7 42 c-10 65 -52 185 -82 236 -93 158 -275 278 -481 318 -68 13 -252 17 -312
7z"/>
<path d="M1190 1539 l0 -850 493 4 c435 3 499 5 552 21 250 74 385 239 385
472 0 180 -87 328 -233 398 l-69 33 34 20 c155 91 217 255 172 454 -36 159
-151 252 -358 288 -36 7 -242 11 -518 11 l-458 0 0 -851z m885 530 c67 -34 95
-82 95 -164 0 -87 -30 -142 -95 -175 -48 -24 -57 -25 -277 -28 l-228 -4 0 202
0 202 228 -3 c221 -4 229 -5 277 -30z m-16 -630 c69 -14 133 -58 156 -105 11
-23 21 -68 23 -110 6 -115 -37 -187 -138 -224 -24 -9 -112 -15 -282 -18 l-248
-4 0 236 0 236 220 0 c120 0 241 -5 269 -11z"/>
<path d="M2840 1540 l0 -850 190 0 190 0 0 850 0 850 -190 0 -190 0 0 -850z"/>
<path d="M5980 1540 l0 -850 180 0 180 0 2 562 3 562 349 -562 349 -562 189 0
188 0 0 850 0 850 -175 0 -175 0 0 -567 c-1 -510 -2 -566 -16 -548 -8 11 -168
266 -356 568 l-340 547 -189 0 -189 0 0 -850z"/>
<path d="M7710 1540 l0 -850 190 0 190 0 0 850 0 850 -190 0 -190 0 0 -850z"/>
<path d="M10110 1540 l0 -850 650 0 650 0 0 155 0 155 -460 0 -460 0 0 210 0
210 410 0 410 0 0 145 0 145 -410 0 -410 0 0 185 0 185 450 0 450 0 0 155 0
155 -640 0 -640 0 0 -850z"/>
</g>
</svg>
